# Blender 4.2.1 LTS
# www.blender.org
mtllib road1.mtl
o Track_line_type_01_15m_free
v -7.500003 0.100001 -2.407881
v -7.499997 0.100001 2.407883
v 7.499997 0.100001 -2.407883
v 7.500003 0.100001 2.407881
v 4.999997 -0.000000 -2.407882
v -5.000003 -0.000000 -2.407882
v -4.999997 0.000000 2.407882
v 5.000003 0.000000 2.407882
v -6.250003 0.100001 -2.407881
v -6.249997 0.100001 2.407883
v 6.250003 0.100001 2.407881
v 6.249997 0.100001 -2.407883
v 4.799997 -0.000000 -2.407882
v -4.800003 -0.000000 -2.407882
v -4.799997 0.000000 2.407882
v 4.800003 0.000000 2.407882
v 5.000002 0.000001 1.685517
v 5.000001 0.000001 1.203940
v 5.000001 0.000001 0.722364
v 5.000000 0.000001 0.240788
v 5.000000 0.000001 -0.240789
v 4.999999 0.000001 -0.722365
v 4.999999 0.000001 -1.203942
v 4.999998 0.000001 -1.685518
v 4.999997 0.000001 -2.167094
v 6.250002 0.100001 1.685517
v 6.250001 0.100001 1.203940
v 6.250001 0.100001 0.722364
v 6.250000 0.100001 0.240788
v 6.250000 0.100001 -0.240789
v 6.249999 0.100001 -0.722365
v 6.249999 0.100001 -1.203942
v 6.249998 0.100001 -1.685518
v 6.249997 0.100001 -2.167094
v -4.999997 0.000001 2.167094
v -4.999998 0.000001 1.685518
v -4.999999 0.000001 1.203942
v -4.999999 0.000001 0.722365
v -5.000000 0.000001 0.240789
v -5.000000 0.000001 -0.240788
v -5.000001 0.000001 -0.722364
v -5.000001 0.000001 -1.203940
v -5.000002 0.000001 -1.685517
v -6.249997 0.100001 2.167094
v -6.249998 0.100001 1.685518
v -6.249999 0.100001 1.203942
v -6.249999 0.100001 0.722365
v -6.250000 0.100001 0.240789
v -6.250000 0.100001 -0.240788
v -6.250001 0.100001 -0.722364
v -6.250001 0.100001 -1.203940
v -6.250002 0.100001 -1.685517
v -5.000003 0.000001 -2.167094
v -6.250003 0.100001 -2.167093
v 5.000003 0.000001 2.167094
v 6.250003 0.100001 2.167093
v 4.599997 -0.000000 -2.407882
v -4.600003 -0.000000 -2.407882
v -4.599997 0.000000 2.407882
v 4.600003 0.000000 2.407882
vn -0.0000 1.0000 -0.0000
vn -0.0797 0.9968 -0.0000
vn 0.0797 0.9968 -0.0000
vt 0.940557 0.686985
vt 0.810674 0.937962
vt 0.193018 0.942883
vt 0.193019 0.942883
vt 0.810674 0.937961
vt 0.690096 0.435961
vt 0.690096 0.435962
s 0
usemtl Trek_Material_free
f 3/1/1 31/1/1 30/1/1
f 16/2/1 19/2/1 20/2/1
f 2/1/1 47/1/1 48/1/1
f 25/3/2 12/3/2 5/3/2
f 53/4/3 9/4/3 54/4/3
f 14/5/1 41/5/1 40/5/1
f 60/3/1 13/3/1 57/3/1
f 56/6/2 17/6/2 55/6/2
f 26/3/2 18/3/2 17/3/2
f 27/6/2 19/6/2 18/6/2
f 28/3/2 20/3/2 19/3/2
f 29/6/2 21/6/2 20/6/2
f 30/3/2 22/3/2 21/3/2
f 31/7/2 23/6/2 22/7/2
f 32/3/2 24/3/2 23/3/2
f 33/6/2 25/6/2 24/6/2
f 10/4/3 35/4/3 44/4/3
f 35/6/3 45/6/3 44/6/3
f 36/4/3 46/4/3 45/4/3
f 37/6/3 47/6/3 46/6/3
f 38/4/3 48/4/3 47/4/3
f 39/6/3 49/7/3 48/6/3
f 40/4/3 50/4/3 49/4/3
f 41/6/3 51/6/3 50/6/3
f 42/4/3 52/4/3 51/4/3
f 43/6/3 54/6/3 52/6/3
f 11/3/2 55/3/2 8/3/2
f 15/4/1 58/4/1 14/4/1
f 59/5/1 57/5/1 58/5/1
f 3/1/1 12/1/1 34/1/1
f 33/1/1 32/1/1 3/1/1
f 32/1/1 31/1/1 3/1/1
f 3/1/1 34/1/1 33/1/1
f 11/1/1 4/1/1 56/1/1
f 4/1/1 3/1/1 29/1/1
f 56/1/1 4/1/1 26/1/1
f 27/1/1 26/1/1 4/1/1
f 27/1/1 4/1/1 28/1/1
f 30/1/1 29/1/1 3/1/1
f 29/1/1 28/1/1 4/1/1
f 5/2/1 13/2/1 25/2/1
f 13/2/1 16/2/1 21/2/1
f 25/2/1 13/2/1 24/2/1
f 16/2/1 8/2/1 55/2/1
f 17/2/1 18/2/1 16/2/1
f 18/2/1 19/2/1 16/2/1
f 16/2/1 55/2/1 17/2/1
f 24/2/1 13/2/1 23/2/1
f 22/2/1 23/2/1 13/2/1
f 22/2/1 13/2/1 21/2/1
f 20/2/1 21/2/1 16/2/1
f 9/1/1 1/1/1 54/1/1
f 1/1/1 2/1/1 49/1/1
f 54/1/1 1/1/1 52/1/1
f 2/1/1 10/1/1 44/1/1
f 45/1/1 46/1/1 2/1/1
f 46/1/1 47/1/1 2/1/1
f 2/1/1 44/1/1 45/1/1
f 52/1/1 1/1/1 51/1/1
f 50/1/1 51/1/1 1/1/1
f 50/1/1 1/1/1 49/1/1
f 48/1/1 49/1/1 2/1/1
f 25/3/2 34/3/2 12/3/2
f 53/4/3 6/4/3 9/4/3
f 14/5/1 6/5/1 53/5/1
f 43/5/1 42/5/1 14/5/1
f 42/5/1 41/5/1 14/5/1
f 14/5/1 53/5/1 43/5/1
f 7/5/1 15/5/1 35/5/1
f 15/5/1 14/5/1 39/5/1
f 35/5/1 15/5/1 36/5/1
f 37/5/1 36/5/1 15/5/1
f 37/5/1 15/5/1 38/5/1
f 40/5/1 39/5/1 14/5/1
f 39/5/1 38/5/1 15/5/1
f 60/3/1 16/3/1 13/3/1
f 56/6/2 26/6/2 17/6/2
f 26/3/2 27/3/2 18/3/2
f 27/6/2 28/6/2 19/6/2
f 28/3/2 29/3/2 20/3/2
f 29/6/2 30/6/2 21/6/2
f 30/3/2 31/3/2 22/3/2
f 31/7/2 32/6/2 23/6/2
f 32/3/2 33/3/2 24/3/2
f 33/6/2 34/6/2 25/6/2
f 10/4/3 7/4/3 35/4/3
f 35/6/3 36/6/3 45/6/3
f 36/4/3 37/4/3 46/4/3
f 37/6/3 38/6/3 47/6/3
f 38/4/3 39/4/3 48/4/3
f 39/6/3 40/7/3 49/7/3
f 40/4/3 41/4/3 50/4/3
f 41/6/3 42/6/3 51/6/3
f 42/4/3 43/4/3 52/4/3
f 43/6/3 53/6/3 54/6/3
f 11/3/2 56/3/2 55/3/2
f 15/4/1 59/4/1 58/4/1
f 59/5/1 60/5/1 57/5/1
